<svg width="300" height="300" viewBox="0 0 300 300" fill="none" xmlns="http://www.w3.org/2000/svg">
  <circle cx="30" cy="30" r="5" fill="#0070CC" opacity="0.5"/>
  <circle cx="70" cy="30" r="5" fill="#0070CC" opacity="0.5"/>
  <circle cx="110" cy="30" r="5" fill="#0070CC" opacity="0.5"/>
  <circle cx="150" cy="30" r="5" fill="#0070CC" opacity="0.5"/>
  <circle cx="190" cy="30" r="5" fill="#0070CC" opacity="0.5"/>
  <circle cx="230" cy="30" r="5" fill="#0070CC" opacity="0.5"/>
  <circle cx="270" cy="30" r="5" fill="#0070CC" opacity="0.5"/>
  
  <circle cx="30" cy="70" r="5" fill="#0070CC" opacity="0.5"/>
  <circle cx="70" cy="70" r="5" fill="#0070CC" opacity="0.5"/>
  <circle cx="110" cy="70" r="5" fill="#0070CC" opacity="0.5"/>
  <circle cx="150" cy="70" r="5" fill="#0070CC" opacity="0.5"/>
  <circle cx="190" cy="70" r="5" fill="#0070CC" opacity="0.5"/>
  <circle cx="230" cy="70" r="5" fill="#0070CC" opacity="0.5"/>
  <circle cx="270" cy="70" r="5" fill="#0070CC" opacity="0.5"/>
  
  <circle cx="30" cy="110" r="5" fill="#0070CC" opacity="0.5"/>
  <circle cx="70" cy="110" r="5" fill="#0070CC" opacity="0.5"/>
  <circle cx="110" cy="110" r="5" fill="#0070CC" opacity="0.5"/>
  <circle cx="150" cy="110" r="5" fill="#0070CC" opacity="0.5"/>
  <circle cx="190" cy="110" r="5" fill="#0070CC" opacity="0.5"/>
  <circle cx="230" cy="110" r="5" fill="#0070CC" opacity="0.5"/>
  <circle cx="270" cy="110" r="5" fill="#0070CC" opacity="0.5"/>
  
  <circle cx="30" cy="150" r="5" fill="#0070CC" opacity="0.5"/>
  <circle cx="70" cy="150" r="5" fill="#0070CC" opacity="0.5"/>
  <circle cx="110" cy="150" r="5" fill="#0070CC" opacity="0.5"/>
  <circle cx="150" cy="150" r="5" fill="#0070CC" opacity="0.5"/>
  <circle cx="190" cy="150" r="5" fill="#0070CC" opacity="0.5"/>
  <circle cx="230" cy="150" r="5" fill="#0070CC" opacity="0.5"/>
  <circle cx="270" cy="150" r="5" fill="#0070CC" opacity="0.5"/>
  
  <circle cx="30" cy="190" r="5" fill="#0070CC" opacity="0.5"/>
  <circle cx="70" cy="190" r="5" fill="#0070CC" opacity="0.5"/>
  <circle cx="110" cy="190" r="5" fill="#0070CC" opacity="0.5"/>
  <circle cx="150" cy="190" r="5" fill="#0070CC" opacity="0.5"/>
  <circle cx="190" cy="190" r="5" fill="#0070CC" opacity="0.5"/>
  <circle cx="230" cy="190" r="5" fill="#0070CC" opacity="0.5"/>
  <circle cx="270" cy="190" r="5" fill="#0070CC" opacity="0.5"/>
  
  <circle cx="30" cy="230" r="5" fill="#0070CC" opacity="0.5"/>
  <circle cx="70" cy="230" r="5" fill="#0070CC" opacity="0.5"/>
  <circle cx="110" cy="230" r="5" fill="#0070CC" opacity="0.5"/>
  <circle cx="150" cy="230" r="5" fill="#0070CC" opacity="0.5"/>
  <circle cx="190" cy="230" r="5" fill="#0070CC" opacity="0.5"/>
  <circle cx="230" cy="230" r="5" fill="#0070CC" opacity="0.5"/>
  <circle cx="270" cy="230" r="5" fill="#0070CC" opacity="0.5"/>
  
  <circle cx="30" cy="270" r="5" fill="#0070CC" opacity="0.5"/>
  <circle cx="70" cy="270" r="5" fill="#0070CC" opacity="0.5"/>
  <circle cx="110" cy="270" r="5" fill="#0070CC" opacity="0.5"/>
  <circle cx="150" cy="270" r="5" fill="#0070CC" opacity="0.5"/>
  <circle cx="190" cy="270" r="5" fill="#0070CC" opacity="0.5"/>
  <circle cx="230" cy="270" r="5" fill="#0070CC" opacity="0.5"/>
  <circle cx="270" cy="270" r="5" fill="#0070CC" opacity="0.5"/>
</svg>